PathFileType	4	(X/Y/Z)	/Users/itak/Documents/Research/Walk-IL/dataset/trc/00091_00006.trc
DataRate	CameraRate	NumFrames	NumMarkers	Units	OrigDataRate	OrigDataStartFrame	OrigNumFrames
100.000000	100.000000	4	53	mm	100.000000	323	517
Frame#	Time	RPSI			LPSI			L3			STRN			T10			C7			CLAV			RBAK			LBAK			LSHO			LUPA			LAEL			LAOL			LWTS			LWPS			LFRA			LHPS			LHTS			RSHO			RUPA			RAEL			RAOL			RWTS			RWPS			RFRA			RIFD			RHTS			RBHD			LFHD			RFHD			LBHD			LHIP			RHIP			RASI			LASI			LKNE			LTHI			LANK			LTIP			LTOE			LMT1			LMT5			LHEE			RKNE			RTHI			RANK			RTIP			RTOE			RMT1			RMT5			LIFD			RHPS			RHEE			
		X1	Y1	Z1	X2	Y2	Z2	X3	Y3	Z3	X4	Y4	Z4	X5	Y5	Z5	X6	Y6	Z6	X7	Y7	Z7	X8	Y8	Z8	X9	Y9	Z9	X10	Y10	Z10	X11	Y11	Z11	X12	Y12	Z12	X13	Y13	Z13	X14	Y14	Z14	X15	Y15	Z15	X16	Y16	Z16	X17	Y17	Z17	X18	Y18	Z18	X19	Y19	Z19	X20	Y20	Z20	X21	Y21	Z21	X22	Y22	Z22	X23	Y23	Z23	X24	Y24	Z24	X25	Y25	Z25	X26	Y26	Z26	X27	Y27	Z27	X28	Y28	Z28	X29	Y29	Z29	X30	Y30	Z30	X31	Y31	Z31	X32	Y32	Z32	X33	Y33	Z33	X34	Y34	Z34	X35	Y35	Z35	X36	Y36	Z36	X37	Y37	Z37	X38	Y38	Z38	X39	Y39	Z39	X40	Y40	Z40	X41	Y41	Z41	X42	Y42	Z42	X43	Y43	Z43	X44	Y44	Z44	X45	Y45	Z45	X46	Y46	Z46	X47	Y47	Z47	X48	Y48	Z48	X49	Y49	Z49	X50	Y50	Z50	X51	Y51	Z51	X52	Y52	Z52	X53	Y53	Z53	

324	3.23	-328.914794921875	1007.664428710938	306.5682678222656	-192.5536804199219	1004.55712890625	202.8177337646484	-249.2349090576172	1070.414672851562	247.4364166259766	-117.2699890136719	1270.002807617188	464.1841125488281	-241.1926879882812	1199.304443359375	226.2689819335938	-210.2692565917969	1467.396118164062	272.97509765625	-132.1941680908203	1384.141967773438	435.7799072265625	-304.5508728027344	1328.213500976562	251.5295715332031	-128.4379730224609	1430.171630859375	207.0495300292969	-20.86014938354492	1439.332397460938	268.8939514160156	53.68522262573242	1317.519653320312	230.1030731201172	128.4316864013672	1120.180419921875	271.3511962890625	29.98373222351074	1077.995361328125	259.0755615234375	164.9666900634766	922.737548828125	441.4028015136719	193.1305694580078	894.2952270507812	367.1170043945312	167.1360931396484	1023.675048828125	312.5426635742188	221.7928314208984	831.78515625	420.3234252929688	196.9635620117188	856.4136352539062	482.2982482910156	-338.9593200683594	1429.868774414062	408.1046752929688	-401.6830749511719	1361.622192382812	421.7062377929688	-451.3888549804688	1104.149047851562	385.0113220214844	-356.5210266113281	1077.181640625	366.7996826171875	-387.4613037109375	840.5659790039062	487.2800598144531	-459.6664733886719	834.597900390625	437.4576721191406	-458.9453735351562	1025.012084960938	393.973388671875	-384.3528442382812	652.6608276367188	470.7210693359375	-388.1298522949219	737.7223510742188	502.8886413574219	-256.9297485351562	1623.895141601562	314.9602355957031	-104.3604583740234	1697.919311523438	458.759033203125	-226.9253387451172	1677.15185546875	475.5570068359375	-124.6782302856445	1652.506103515625	286.9670104980469	-56.65739059448242	943.803955078125	234.6005249023438	-352.496337890625	939.4044189453125	409.7148132324219	-262.1858520507812	965.8908081054688	497.7969055175781	-36.74374771118164	954.5581665039062	356.5797424316406	-108.85009765625	481.1227416992188	304.34912109375	-80.11243438720703	621.6879272460938	267.1232604980469	-234.2015838623047	48.79435729980469	142.6700286865234	-164.7262573242188	253.3332061767578	209.4268951416016	-126.529182434082	39.40688705444336	317.3168029785156	-196.9487457275391	42.56819152832031	306.681884765625	-146.4107666015625	34.20281982421875	205.1184997558594	-325.6341857910156	58.85754776000977	142.1647491455078	-204.5862731933594	520.3821411132812	561.403564453125	-292.4375915527344	778.1509399414062	513.44384765625	-112.1333694458008	42.8640022277832	614.8251342773438	-190.5777282714844	400.7667541503906	575.7784423828125	-23.30808639526367	139.3769073486328	778.67724609375	-2.070527315139771	117.4045562744141	716.1906127929688	-96.69996643066406	90.916259765625	724.7587280273438	191.685546875	756.565673828125	515.8797607421875	-457.0599975585938	742.2068481445312	467.4913940429688	-74.76626586914062	37.76226806640625	553.5972290039062	
325	3.24	-324.2787475585938	1006.722534179688	312.0813598632812	-187.1784973144531	1003.822814941406	209.4001770019531	-243.9165649414062	1069.299072265625	253.59375	-113.8596420288086	1268.902465820312	471.2822875976562	-235.7568359375	1198.172729492188	232.3469085693359	-205.3545227050781	1466.30224609375	279.2826232910156	-128.6018676757812	1383.054077148438	442.7490539550781	-299.3628845214844	1327.003173828125	257.0768737792969	-123.0702056884766	1429.095336914062	213.9800720214844	-15.92987823486328	1438.267333984375	276.7710571289062	58.87234878540039	1316.441284179688	238.4902954101562	133.3937072753906	1119.179565429688	280.1541137695312	35.01424407958984	1076.943359375	267.4922485351562	169.1051940917969	922.30078125	450.9919128417969	197.5920867919922	893.5609741210938	376.9302368164062	171.8415222167969	1022.7626953125	321.8039245605469	225.9923706054688	831.256591796875	430.5191650390625	200.9201049804688	856.1611938476562	492.2885131835938	-335.2114562988281	1428.638061523438	413.2970581054688	-398.0325317382812	1360.38427734375	426.3527526855469	-447.5267028808594	1103.029174804688	389.2358703613281	-352.7525024414062	1076.0302734375	371.4751586914062	-385.0155639648438	839.064453125	491.127685546875	-457.0658264160156	833.5281982421875	440.9303283691406	-455.2962951660156	1023.992431640625	397.9785461425781	-382.6776123046875	651.1351928710938	473.7810668945312	-386.3316955566406	735.7289428710938	506.4010314941406	-252.6952819824219	1622.758056640625	321.0377197265625	-100.7705764770508	1696.956787109375	465.4506225585938	-223.4016571044922	1676.178588867188	481.7033081054688	-120.3232116699219	1651.368774414062	293.5748596191406	-51.65340423583984	942.819091796875	241.931396484375	-348.4095764160156	938.3272094726562	414.9166870117188	-258.7445068359375	964.783447265625	503.8580322265625	-32.42199325561523	953.3740844726562	363.8270874023438	-106.5889129638672	480.1834106445312	308.3564453125	-76.81858825683594	620.7915649414062	272.2756042480469	-233.9942779541016	49.43930053710938	142.8607788085938	-163.4510192871094	253.3648071289062	211.1917419433594	-126.4972686767578	39.3387451171875	317.3620910644531	-196.8184356689453	42.58317947387695	306.6983032226562	-146.3318328857422	34.24465942382812	205.2081756591797	-325.4405822753906	60.14021682739258	142.3292541503906	-199.7852630615234	519.7326049804688	567.1505126953125	-288.1051635742188	777.150634765625	519.4287719726562	-106.446891784668	41.72855377197266	618.660888671875	-185.7510528564453	399.6723327636719	581.1283569335938	-19.46133422851562	137.2569274902344	784.0842895507812	2.380889892578125	115.962890625	721.5974731445312	-92.32246398925781	89.08000946044922	729.0245971679688	195.5342864990234	756.4937744140625	526.302978515625	-454.9599304199219	741.0134887695312	470.631591796875	-68.53137969970703	37.18815231323242	557.7536010742188	
326	3.25	-319.6575927734375	1005.845336914062	317.72265625	-181.8272857666016	1003.172729492188	216.1141662597656	-238.6840667724609	1068.251586914062	259.82080078125	-110.4967880249023	1267.853515625	478.5133361816406	-230.3024444580078	1197.076293945312	238.5299224853516	-200.4550933837891	1465.243774414062	285.7005920410156	-125.0758590698242	1382.013793945312	449.8432006835938	-294.1542358398438	1325.8154296875	262.7350158691406	-117.7122116088867	1428.045043945312	221.0747528076172	-11.0197172164917	1437.241088867188	284.8146362304688	64.03495788574219	1315.414672851562	247.0038909912109	138.1859283447266	1118.131958007812	288.8749694824219	39.84945678710938	1075.934814453125	275.8180541992188	172.9914245605469	921.6777954101562	460.3335876464844	201.73486328125	892.6568603515625	386.4622497558594	176.3196105957031	1021.75	330.8818664550781	229.8282318115234	830.4992065429688	440.3800964355469	204.5836944580078	855.6590576171875	501.9696350097656	-331.50830078125	1427.455200195312	418.5554809570312	-394.44384765625	1359.187866210938	431.0404968261719	-443.6190490722656	1101.931518554688	393.5712890625	-348.96826171875	1074.921875	376.3020935058594	-382.5256652832031	837.6268920898438	495.2311706542969	-454.3453674316406	832.4908447265625	444.6329650878906	-451.6081848144531	1022.990966796875	402.1199645996094	-380.9308166503906	649.6851806640625	477.1755676269531	-384.47900390625	733.7743530273438	510.2237243652344	-248.5047607421875	1621.643920898438	327.190673828125	-97.24342346191406	1696.052978515625	472.2033081054688	-219.9259338378906	1675.25439453125	487.9163818359375	-116.0267105102539	1650.26318359375	300.2512512207031	-46.6939582824707	941.8846435546875	249.3096618652344	-344.3707885742188	937.381103515625	420.3218994140625	-255.2787475585938	963.7244262695312	510.0372619628906	-28.08499717712402	952.2449340820312	371.1896057128906	-104.2339935302734	479.2611389160156	312.5567932128906	-73.46106719970703	619.9209594726562	277.5860900878906	-233.7240447998047	50.1915397644043	143.0203704833984	-162.0699768066406	253.4731903076172	213.0254516601562	-126.4709320068359	39.28454208374023	317.3931274414062	-196.6607818603516	42.61668014526367	306.6951904296875	-146.1986694335938	34.29446029663086	205.2891540527344	-325.1548461914062	61.61207962036133	142.4843139648438	-194.9720153808594	519.2239990234375	573.2750854492188	-283.6779479980469	776.3121337890625	525.6964111328125	-101.6263427734375	40.26422882080078	620.9553833007812	-181.0081787109375	398.4606323242188	586.5031127929688	-15.80014705657959	134.020263671875	787.9927368164062	6.422858715057373	113.5353775024414	725.4081420898438	-88.38381958007812	86.50144195556641	731.8477783203125	198.9950256347656	756.1568603515625	536.3494262695312	-452.7596740722656	739.884521484375	474.0526123046875	-63.28291320800781	36.35282516479492	560.2815551757812	
327	3.26	-315.0569763183594	1005.034973144531	323.5341796875	-176.5119781494141	1002.595092773438	222.9749603271484	-233.5207824707031	1067.268676757812	266.1609497070312	-107.1730117797852	1266.864990234375	485.878173828125	-224.8442993164062	1196.01220703125	244.8327178955078	-195.5829162597656	1464.222290039062	292.2300720214844	-121.6129455566406	1381.025268554688	457.0626220703125	-288.9310607910156	1324.6513671875	268.517333984375	-112.3664398193359	1427.026123046875	228.3276977539062	-6.140997886657715	1436.259887695312	293.0162658691406	69.16471862792969	1314.44384765625	255.6453552246094	142.8157653808594	1117.050170898438	297.5286254882812	44.50310134887695	1074.975341796875	284.0500793457031	176.6276397705078	920.865966796875	469.4265441894531	205.5758819580078	891.5919189453125	395.7138061523438	180.5896301269531	1020.650451660156	339.7887573242188	233.3206634521484	829.5159301757812	449.9035034179688	207.9528350830078	854.9042358398438	511.3403625488281	-327.8494262695312	1426.325561523438	423.8882141113281	-390.91015625	1358.040893554688	435.7816467285156	-439.671142578125	1100.866821289062	398.0029907226562	-345.1286315917969	1073.86474609375	381.3041381835938	-379.9927978515625	836.2666625976562	499.5815734863281	-451.5035705566406	831.4915771484375	448.5474243164062	-447.8834228515625	1022.012390136719	406.3836364746094	-379.0641784667969	648.32666015625	480.9400024414062	-382.5355224609375	731.9298706054688	514.3146362304688	-244.3564910888672	1620.561401367188	333.4192810058594	-93.77269744873047	1695.208740234375	479.0103149414062	-216.4952239990234	1674.388549804688	494.195556640625	-111.7853546142578	1649.193725585938	306.9966125488281	-41.77363204956055	941.0025024414062	256.7400512695312	-340.3535766601562	936.5867309570312	426.0380249023438	-251.7543640136719	962.715576171875	516.3685302734375	-23.72301483154297	951.1780395507812	378.6712951660156	-101.7308197021484	478.3351135253906	317.0055236816406	-70.01065063476562	619.0632934570312	283.0927734375	-233.3851470947266	51.07647705078125	143.1432037353516	-160.5634155273438	253.6563873291016	214.9591522216797	-126.4486312866211	39.24295806884766	317.4126586914062	-196.4727783203125	42.6688232421875	306.6742858886719	-146.0027008056641	34.35282135009766	205.3602905273438	-324.7633666992188	63.30399703979492	142.6262664794922	-190.1685485839844	518.786865234375	579.68798828125	-279.1819763183594	775.6201171875	532.24169921875	-97.6500244140625	38.56547164916992	621.9208374023438	-176.3625183105469	397.1333312988281	591.8759155273438	-12.17470455169678	129.8184204101562	790.5189208984375	10.16694164276123	110.2315292358398	727.7433471679688	-84.76369476318359	83.31251525878906	733.4215087890625	202.0711822509766	755.54345703125	546.0031127929688	-450.4422607421875	738.8248901367188	477.7431640625	-59.00203323364258	35.29016876220703	561.3943481445312	
